#!OML:ASF F:\VICON\USERDATA\INSTALL\rory3\rory3.ASF
:FULLY-SPECIFIED
:DEGREES
237
root -0.0181 17.2075 -18.446 4.16228 0.0506 -6.6195
lowerback 18.3281 0.476381 4.78326
upperback 1.99424 1.75036 2.04418
thorax -8.04469 0.713041 -0.944408
lowerneck -4.02789 0.844775 0.177828
upperneck -12.8851 0.886895 -2.34281
head -3.44127 0.504471 -0.810804
rclavicle -2.01021e-014 -2.33075e-014
rhumerus -20.2997 9.98624 -87.1203
rradius 99.4187
rwrist 0.681962
rhand -38.6069 36.8726
rfingers 7.12502
rthumb -11.6246 7.21506
lclavicle -2.01021e-014 -2.33075e-014
lhumerus -50.1727 -7.90263 95.3381
lradius 103.153
lwrist 28.1561
lhand -37.0874 10.6828
lfingers 7.12502
lthumb -10.159 40.4175
rfemur -6.73576 8.70429 35.0145
rtibia 38.9952
rfoot -18.5931 -10.1221
rtoes -13.9302
lfemur -39.6068 16.7235 -8.57307
ltibia 115.846
lfoot 11.6705 -10.8948
ltoes -11.2928
238
root -0.0181 17.2805 -18.149 4.46172 0.0506 -6.74831
lowerback 18.1649 0.780275 5.17823
upperback 1.73064 2.21409 1.8353
thorax -8.19624 0.912195 -1.50492
lowerneck -3.87555 0.633116 0.307921
upperneck -12.6962 0.627312 -2.13648
head -3.40675 0.363867 -0.760593
rclavicle -1.30546e-014 3.72721e-017
rhumerus -19.4762 9.81095 -87.1589
rradius 100.548
rwrist 0.620207
rhand -37.9067 35.8684
rfingers 7.12502
rthumb -10.9493 6.17396
lclavicle -1.30546e-014 3.72721e-017
lhumerus -51.4966 -7.65259 95.1347
lradius 103.198
lwrist 29.0639
lhand -38.2391 10.7047
lfingers 7.12502
lthumb -11.2698 40.382
rfemur -4.43641 8.89211 35.0227
rtibia 37.4864
rfoot -17.7018 -9.0631
rtoes -15.9842
lfemur -42.2168 16.1302 -9.24401
ltibia 114.269
lfoot 10.9445 -11.2397
ltoes -10.5655
239
root -0.0181 17.3724 -17.8521 4.69712 0.0506 -6.56183
lowerback 17.9468 0.85714 5.69184
upperback 1.56704 2.37228 1.38744
thorax -8.20393 0.960498 -2.31269
lowerneck -4.44 0.428402 0.542484
upperneck -12.2049 0.397475 -1.73987
head -3.13548 0.223147 -0.66082
rclavicle -2.90847e-014 -3.07122e-014
rhumerus -18.6682 9.63666 -87.3377
rradius 101.737
rwrist 0.276145
rhand -37.6753 35.2173
rfingers 7.12502
rthumb -10.7261 5.51109
lclavicle -2.90847e-014 -3.07122e-014
lhumerus -52.6803 -7.42953 94.609
lradius 103.382
lwrist 29.3725
lhand -38.6883 11.8125
lfingers 7.12502
lthumb -11.703 41.4656
rfemur -2.12227 8.56023 34.604
rtibia 35.7623
rfoot -16.0936 -7.61494
rtoes -15.9843
lfemur -44.9676 14.5831 -10.5274
ltibia 112.087
lfoot 10.823 -10.9672
ltoes -9.1771
240
root -0.018 17.4388 -17.5551 4.96778 0.0506 -6.24611
lowerback 17.7791 1.01739 5.99029
upperback 1.42552 2.60062 0.964454
thorax -8.21377 1.04971 -2.98945
lowerneck -5.1572 0.255364 0.537708
upperneck -11.8312 0.210382 -1.2893
head -2.87994 0.114698 -0.506982
rclavicle -1.0138e-014 4.4329e-014
rhumerus -17.8285 9.65914 -87.385
rradius 102.868
rwrist -0.37964
rhand -37.5776 34.8845
rfingers 7.12502
rthumb -10.6318 5.17347
lclavicle -1.0138e-014 4.4329e-014
lhumerus -53.8049 -6.97492 94.1406
lradius 103.708
lwrist 29.2595
lhand -38.7888 12.9839
lfingers 7.12502
lthumb -11.8 42.6315
rfemur 0.0687968 8.22399 33.9049
rtibia 34.0849
rfoot -13.989 -6.16615
rtoes -17.1807
lfemur -46.8546 13.4381 -11.6941
ltibia 109.808
lfoot 9.82081 -10.8406
ltoes -9.56075
241
root -0.018 17.5232 -17.2581 5.39939 0.3061 -6.20902
lowerback 17.4282 1.27519 6.3232
upperback 1.20059 2.97585 0.790424
thorax -8.20448 1.21147 -3.44401
lowerneck -5.63949 0.098707 0.298241
upperneck -11.4536 0.0327579 -1.03435
head -2.66729 0.0281208 -0.380284
rclavicle 1.59028e-014 2.78299e-015
rhumerus -17.0963 10.0076 -87.1387
rradius 103.866
rwrist -1.3587
rhand -37.9287 35.6844
rfingers 7.12502
rthumb -10.9705 5.99101
lclavicle 1.59028e-014 2.78299e-015
lhumerus -54.9082 -6.27408 93.9818
lradius 103.83
lwrist 28.9598
lhand -39.1159 12.8197
lfingers 7.12502
lthumb -12.1155 42.449
rfemur 2.27228 8.12894 33.3887
rtibia 32.1087
rfoot -11.2601 -4.35942
rtoes -18.3968
lfemur -48.6494 12.6077 -12.4915
ltibia 107.107
lfoot 8.83211 -10.7663
ltoes -10.7963
242
root -0.0179 17.6242 -17.0005 5.67854 0.3061 -6.08757
lowerback 16.8433 1.48804 6.48774
upperback 1.18724 3.23218 0.65317
thorax -7.85087 1.34155 -3.71622
lowerneck -6.5046 -0.0179042 -0.22231
upperneck -10.8432 -0.0642656 -0.624607
head -2.31183 -0.0118895 -0.159663
rclavicle 2.4376e-014 1.02374e-014
rhumerus -16.4032 10.5931 -86.9397
rradius 104.826
rwrist -2.49156
rhand -37.303 36.065
rfingers 7.12502
rthumb -10.3669 6.34057
lclavicle 2.4376e-014 1.02374e-014
lhumerus -55.5681 -5.61187 93.8193
lradius 103.656
lwrist 28.8265
lhand -38.7679 11.3376
lfingers 7.12502
lthumb -11.7799 40.9864
rfemur 4.80556 8.25325 32.8835
rtibia 29.6259
rfoot -8.13249 -2.65994
rtoes -17.133
lfemur -50.0149 11.6075 -13.2017
ltibia 103.954
lfoot 7.84262 -10.44
ltoes -11.6925
243
root -0.0179 17.7412 -16.743 5.7456 0.3061 -6.39446
lowerback 16.5751 1.60153 6.88792
upperback 1.25894 3.43136 0.655634
thorax -7.57956 1.4375 -3.96656
lowerneck -7.43824 -0.107632 -0.611938
upperneck -10.3209 -0.12752 -0.240417
head -1.98072 -0.0381825 0.0259669
rclavicle -2.95195e-014 1.98785e-016
rhumerus -15.7257 11.2592 -86.7755
rradius 105.715
rwrist -3.70911
rhand -36.2502 35.0678
rfingers 7.12502
rthumb -9.35122 5.29517
lclavicle -2.95195e-014 1.98785e-016
lhumerus -56.1959 -4.9604 93.5511
lradius 103.594
lwrist 28.2947
lhand -39.3191 11.1076
lfingers 7.12502
lthumb -12.3113 40.7252
rfemur 7.825 8.54988 33.1054
rtibia 26.457
rfoot -4.1918 -1.70716
rtoes -16.354
lfemur -51.0485 10.5433 -13.091
ltibia 100.387
lfoot 7.33675 -10.0145
ltoes -9.55644
244
root -0.0178 17.888 -16.4854 5.6665 0.3061 -6.74679
lowerback 16.4376 1.5381 7.49324
upperback 1.29039 3.446 0.658445
thorax -7.4326 1.43247 -4.29904
lowerneck -8.16814 -0.227695 -0.783098
upperneck -9.99871 -0.258343 -0.085034
head -1.75401 -0.100581 0.100757
rclavicle 3.23025e-016 1.33186e-014
rhumerus -15.3615 11.9672 -86.5781
rradius 106.631
rwrist -4.71583
rhand -36.7522 34.7882
rfingers 7.12502
rthumb -9.83558 5.0379
lclavicle 3.23025e-016 1.33186e-014
lhumerus -57.0314 -4.13427 93.2573
lradius 103.554
lwrist 27.0687
lhand -38.7438 9.63349
lfingers 7.12502
lthumb -11.7566 39.2835
rfemur 11.1769 8.61242 33.4843
rtibia 22.6768
rfoot 1.28116 -1.115
rtoes -12.3949
lfemur -51.8333 8.92724 -12.823
ltibia 96.1236
lfoot 7.65082 -9.2336
ltoes -10.236
245
root -0.0177 17.9863 -16.2279 5.59216 0.3061 -6.83542
lowerback 15.828 1.42923 7.99277
upperback 1.30401 3.33037 0.58049
thorax -7.0612 1.37905 -4.60835
lowerneck -8.6473 -0.294915 -0.836107
upperneck -9.48995 -0.330798 0.0113281
head -1.51161 -0.137233 0.13692
rclavicle 5.69021e-015 1.85864e-014
rhumerus -15.3369 12.7404 -86.4088
rradius 107.55
rwrist -5.38
rhand -37.7414 35.2003
rfingers 7.12502
rthumb -10.7898 5.49741
lclavicle 5.69021e-015 1.85864e-014
lhumerus -58.0394 -3.29854 92.9003
lradius 103.736
lwrist 26.9474
lhand -37.8488 10.1337
lfingers 7.12502
lthumb -10.8934 39.8312
rfemur 14.8346 8.44642 33.5139
rtibia 18.2764
rfoot 8.01144 -1.81141
rtoes -3.66257
lfemur -52.1039 7.32382 -12.8313
ltibia 92.1073
lfoot 7.21447 -8.72201
ltoes -13.3626
246
root -0.0176 18.0688 -15.9703 5.48568 0.3061 -6.52313
lowerback 15.2227 1.49405 8.06172
upperback 1.1368 3.36571 0.365042
thorax -6.88408 1.39678 -4.85944
lowerneck -8.42661 -0.375735 -0.884228
upperneck -8.91278 -0.427322 0.145272
head -1.36306 -0.186318 0.18424
rclavicle -1.71949e-014 4.37326e-015
rhumerus -15.8842 13.3215 -86.3792
rradius 108.681
rwrist -6.19898
rhand -36.5331 35.5613
rfingers 7.12502
rthumb -9.6242 5.80112
lclavicle -1.71949e-014 4.37326e-015
lhumerus -59.3771 -2.80213 92.6228
lradius 103.823
lwrist 26.7474
lhand -37.0999 10.7131
lfingers 7.12502
lthumb -10.1711 40.4472
rfemur 18.9631 8.55973 33.1434
rtibia 13.0188
rfoot 13.7371 -1.72656
rtoes -1.09002
lfemur -52.0926 5.98607 -13.2089
ltibia 87.9028
lfoot 5.79839 -8.16268
ltoes -13.1252
247
root -0.0175 18.1579 -15.7128 5.40118 0.3061 -6.17216
lowerback 14.6758 1.56551 7.99356
upperback 0.836872 3.39792 0.116048
thorax -6.88792 1.40406 -5.07513
lowerneck -7.41671 -0.537185 -0.697331
upperneck -8.76072 -0.662782 0.154687
head -1.47853 -0.30978 0.156668
rclavicle -3.8763e-015 -2.18663e-014
rhumerus -16.7525 13.6999 -86.4346
rradius 110.161
rwrist -7.13732
rhand -32.865 31.2926
rfingers 7.12502
rthumb -6.08387 1.39993
lclavicle -3.8763e-015 -2.18663e-014
lhumerus -61.0086 -2.45135 92.2784
lradius 104.078
lwrist 26.458
lhand -36.8421 11.0551
lfingers 7.12502
lthumb -9.92229 40.8013
rfemur 23.6257 8.51829 32.8228
rtibia 6.38478
rfoot 20.6401 -2.67878
rtoes 3.70047
lfemur -52.0013 4.63701 -13.5495
ltibia 83.4929
lfoot 5.27649 -7.91881
ltoes -13.1182
